<svg width="197" height="60" viewBox="0 0 197 60" fill="none" xmlns="http://www.w3.org/2000/svg">
<path d="M116.417 52.4949V53.7591H117.82V54.4844H116.458V57.3444C116.458 58.0076 116.644 58.3599 117.18 58.3599C117.365 58.3877 117.553 58.3877 117.738 58.3599V59.0852C117.464 59.1712 117.178 59.2131 116.891 59.2096C116.701 59.2212 116.511 59.1921 116.333 59.1242C116.155 59.0563 115.994 58.9512 115.859 58.8158C115.574 58.4123 115.443 57.9198 115.488 57.4273V54.4844H114.683V53.7591H115.488V52.7643L116.417 52.4949Z" fill="white"/>
<path d="M118.873 55.4168C118.873 54.7951 118.873 54.2563 118.873 53.7589H119.719V54.7951C119.81 54.4712 120.001 54.1845 120.264 53.9761C120.527 53.7676 120.85 53.6481 121.185 53.6345H121.432V54.5464H121.102C120.777 54.5601 120.469 54.6916 120.233 54.9164C119.998 55.1413 119.852 55.4443 119.822 55.7691C119.812 55.9209 119.812 56.0733 119.822 56.2251V59.0436H118.873V55.4168Z" fill="white"/>
<path d="M126.841 57.5935C126.841 58.1531 126.841 58.6297 126.841 59.0442H126.077V58.1738C125.891 58.4725 125.632 58.7186 125.325 58.8891C125.018 59.0595 124.673 59.1486 124.322 59.1478C123.497 59.1478 122.506 58.6712 122.506 56.8267V53.7388H123.455V56.6609C123.455 57.6557 123.765 58.3603 124.632 58.3603C124.906 58.3539 125.172 58.2657 125.397 58.1071C125.621 57.9484 125.793 57.7263 125.891 57.4692C125.926 57.3052 125.926 57.1357 125.891 56.9718V53.7388H126.841V57.5935Z" fill="white"/>
<path d="M128.286 58.0284C128.676 58.2556 129.115 58.3837 129.566 58.4015C130.247 58.4015 130.577 58.0699 130.577 57.6139C130.577 57.158 130.309 56.9093 129.607 56.6606C128.905 56.4119 128.203 55.7902 128.203 55.1684C128.213 54.9439 128.269 54.7237 128.367 54.5217C128.465 54.3197 128.604 54.1402 128.775 53.9944C128.945 53.8486 129.143 53.7396 129.358 53.6742C129.572 53.6087 129.797 53.5883 130.02 53.6141C130.469 53.6008 130.913 53.7158 131.299 53.9457L131.072 54.6503C130.75 54.4496 130.378 54.3421 129.999 54.3395C129.442 54.3395 129.132 54.6711 129.132 55.0648C129.132 55.4586 129.442 55.7073 130.123 55.9767C130.804 56.2461 131.506 56.785 131.506 57.5518C131.506 58.3186 130.783 59.1475 129.442 59.1475C128.922 59.1577 128.409 59.0289 127.956 58.7745L128.286 58.0284Z" fill="white"/>
<path d="M133.879 52.4949V53.7591H135.242V54.4844H133.879V57.3444C133.879 58.0076 134.065 58.3599 134.602 58.3599C134.787 58.3852 134.974 58.3852 135.159 58.3599V59.0852C134.885 59.1712 134.6 59.2131 134.313 59.2096C134.123 59.2212 133.932 59.1921 133.755 59.1242C133.577 59.0563 133.415 58.9512 133.281 58.8158C132.996 58.4123 132.864 57.9198 132.909 57.4273V54.4844H132.104V53.7591H132.909V52.7643L133.879 52.4949Z" fill="white"/>
<path d="M136.81 56.5777C136.785 56.8225 136.814 57.0698 136.895 57.3022C136.976 57.5345 137.107 57.7462 137.278 57.9222C137.449 58.0982 137.657 58.2342 137.887 58.3206C138.116 58.407 138.362 58.4416 138.606 58.4221C139.111 58.4429 139.613 58.3435 140.072 58.132L140.258 58.8159C139.697 59.0566 139.091 59.1698 138.482 59.1475C138.131 59.1666 137.78 59.1098 137.453 58.9811C137.126 58.8523 136.83 58.6545 136.586 58.4011C136.341 58.1477 136.153 57.8445 136.035 57.512C135.918 57.1796 135.872 56.8256 135.902 56.474C135.861 56.114 135.897 55.7493 136.007 55.4042C136.118 55.0592 136.3 54.7417 136.542 54.473C136.784 54.2043 137.081 53.9906 137.412 53.8461C137.743 53.7015 138.101 53.6295 138.462 53.6348C138.76 53.6554 139.052 53.7363 139.319 53.8725C139.586 54.0088 139.823 54.1976 140.015 54.4278C140.208 54.658 140.353 54.9248 140.44 55.2122C140.528 55.4997 140.557 55.802 140.526 56.101C140.551 56.252 140.551 56.406 140.526 56.5569H136.81V56.5777ZM139.618 55.9559C139.644 55.7647 139.63 55.5701 139.576 55.3849C139.522 55.1997 139.429 55.028 139.304 54.8812C139.18 54.7344 139.025 54.6158 138.852 54.5331C138.678 54.4505 138.489 54.4056 138.297 54.4016C137.904 54.4323 137.537 54.6083 137.266 54.8955C136.995 55.1827 136.84 55.5606 136.831 55.9559H139.618Z" fill="white"/>
<path d="M146.264 51.2927V57.6758C146.264 58.1525 146.264 58.6913 146.264 59.0437H145.418V58.1318C145.254 58.4588 144.999 58.731 144.684 58.915C144.369 59.099 144.007 59.1869 143.643 59.168C143.314 59.1503 142.993 59.0654 142.698 58.9183C142.403 58.7713 142.141 58.5653 141.928 58.313C141.716 58.0607 141.557 57.7673 141.461 57.4511C141.366 57.1348 141.335 56.8022 141.372 56.4738C141.332 56.1307 141.362 55.783 141.46 55.4519C141.558 55.1208 141.722 54.8131 141.943 54.5476C142.163 54.282 142.434 54.0642 142.741 53.9072C143.047 53.7503 143.382 53.6575 143.725 53.6346C144.038 53.6146 144.35 53.679 144.63 53.8211C144.909 53.9632 145.146 54.1779 145.315 54.4428V54.4428V51.2927H146.264ZM145.315 55.9557C145.325 55.8177 145.325 55.6792 145.315 55.5412C145.244 55.227 145.068 54.9466 144.817 54.7468C144.565 54.5469 144.253 54.4396 143.932 54.4428C142.941 54.4428 142.363 55.3133 142.363 56.5153C142.363 57.7173 142.9 58.4841 143.911 58.4841C144.242 58.4813 144.562 58.3645 144.818 58.1533C145.073 57.942 145.249 57.6491 145.315 57.3235C145.337 57.1863 145.337 57.0463 145.315 56.909V55.9557Z" fill="white"/>
<path d="M153.922 58.8578C153.448 59.0694 152.934 59.1755 152.415 59.1686C152.06 59.1873 151.706 59.1299 151.375 59.0003C151.045 58.8707 150.745 58.6717 150.497 58.4168C150.249 58.1618 150.058 57.8567 149.937 57.5218C149.815 57.1869 149.767 56.8298 149.793 56.4745C149.776 56.0978 149.837 55.7215 149.973 55.37C150.109 55.0186 150.317 54.6997 150.583 54.434C150.85 54.1683 151.169 53.9618 151.52 53.8278C151.871 53.6937 152.246 53.6352 152.621 53.6559C153.079 53.6448 153.532 53.7443 153.942 53.9461L153.715 54.6922C153.371 54.5153 152.987 54.4297 152.601 54.4435C152.172 54.569 151.795 54.8308 151.527 55.1895C151.259 55.5483 151.115 55.9846 151.115 56.433C151.115 56.8814 151.259 57.3177 151.527 57.6765C151.795 58.0352 152.172 58.297 152.601 58.4225C153.009 58.4266 153.412 58.3343 153.777 58.1531L153.922 58.8578Z" fill="white"/>
<path d="M159.743 56.3703C159.773 56.7391 159.724 57.11 159.6 57.4585C159.476 57.8069 159.279 58.125 159.024 58.3915C158.768 58.658 158.459 58.8669 158.117 59.0043C157.775 59.1418 157.407 59.2047 157.039 59.1888C156.691 59.1929 156.346 59.1239 156.026 58.9865C155.707 58.849 155.419 58.6459 155.182 58.3903C154.945 58.1347 154.764 57.8322 154.65 57.5022C154.536 57.1722 154.492 56.8219 154.521 56.4739C154.492 56.1132 154.539 55.7503 154.658 55.4088C154.777 55.0673 154.966 54.7547 155.213 54.4911C155.46 54.2275 155.759 54.0188 156.092 53.8784C156.424 53.7381 156.782 53.6691 157.142 53.6761C157.497 53.6535 157.852 53.7084 158.183 53.837C158.515 53.9656 158.814 54.1648 159.061 54.4209C159.309 54.677 159.498 54.984 159.615 55.3205C159.733 55.657 159.776 56.0152 159.743 56.3703V56.3703ZM155.615 56.3703C155.615 57.5308 156.275 58.4427 157.204 58.4427C158.133 58.4427 158.793 57.593 158.793 56.3703C158.793 55.1475 158.36 54.2978 157.225 54.2978C156.089 54.2978 155.573 55.4169 155.573 56.4117L155.615 56.3703Z" fill="white"/>
<path d="M160.94 55.1888C160.94 54.6292 160.94 54.194 160.94 53.7588H161.786V54.6293C161.963 54.3219 162.219 54.0687 162.529 53.8971C162.838 53.7254 163.188 53.6418 163.541 53.6552C164.263 53.6552 165.399 54.0904 165.399 55.9142V59.0643H164.47V55.9556C164.47 55.1059 164.16 54.3806 163.252 54.3806C162.964 54.389 162.686 54.4874 162.457 54.662C162.227 54.8366 162.058 55.0787 161.972 55.3546C161.949 55.5057 161.949 55.6594 161.972 55.8105V59.0643H161.002L160.94 55.1888Z" fill="white"/>
<path d="M166.988 55.189C166.988 54.6294 166.988 54.1942 166.988 53.759H167.834V54.6294C168.005 54.3221 168.258 54.0685 168.564 53.8966C168.87 53.7246 169.217 53.6411 169.568 53.6554C170.29 53.6554 171.425 54.0906 171.425 55.9143V59.0644H170.476V55.9558C170.476 55.1061 170.166 54.3807 169.258 54.3807C168.97 54.3891 168.692 54.4875 168.463 54.6621C168.234 54.8367 168.064 55.0789 167.978 55.3548C167.955 55.5059 167.955 55.6596 167.978 55.8107V59.0644H167.029L166.988 55.189Z" fill="white"/>
<path d="M173.552 56.5774C173.53 56.8233 173.562 57.071 173.645 57.3033C173.728 57.5356 173.861 57.7468 174.034 57.9224C174.207 58.0979 174.416 58.2335 174.646 58.3198C174.876 58.4061 175.123 58.4409 175.368 58.4219C175.872 58.4403 176.374 58.341 176.833 58.1317L176.999 58.8156C176.445 59.0533 175.846 59.1665 175.244 59.1472C174.891 59.1694 174.538 59.1149 174.208 58.9876C173.879 58.8602 173.58 58.6628 173.333 58.4091C173.086 58.1553 172.897 57.851 172.778 57.517C172.659 57.1831 172.613 56.8272 172.643 56.4738C172.603 56.1207 172.637 55.763 172.742 55.4237C172.848 55.0844 173.023 54.771 173.256 54.5036C173.489 54.2363 173.775 54.0208 174.097 53.8712C174.418 53.7215 174.766 53.6409 175.12 53.6345C175.43 53.6387 175.735 53.7074 176.016 53.8364C176.298 53.9654 176.549 54.1518 176.755 54.3838C176.961 54.6158 177.116 54.8882 177.212 55.1838C177.307 55.4794 177.34 55.7917 177.308 56.1007C177.322 56.2524 177.322 56.405 177.308 56.5567H173.552V56.5774ZM176.359 55.9557C176.385 55.7645 176.371 55.5699 176.317 55.3847C176.263 55.1994 176.17 55.0278 176.045 54.881C175.921 54.7342 175.766 54.6155 175.593 54.5329C175.419 54.4502 175.23 54.4054 175.038 54.4013C174.641 54.4271 174.269 54.601 173.994 54.8886C173.719 55.1763 173.561 55.557 173.552 55.9557H176.359Z" fill="white"/>
<path d="M182.221 58.8578C181.747 59.0694 181.233 59.1755 180.714 59.1686C180.359 59.1873 180.005 59.1299 179.674 59.0003C179.344 58.8707 179.044 58.6717 178.796 58.4168C178.548 58.1618 178.357 57.8567 178.236 57.5218C178.114 57.1869 178.066 56.8298 178.093 56.4745C178.075 56.0978 178.136 55.7215 178.272 55.37C178.408 55.0186 178.616 54.6997 178.882 54.434C179.149 54.1683 179.468 53.9618 179.819 53.8278C180.17 53.6937 180.545 53.6352 180.92 53.6559C181.378 53.6448 181.831 53.7443 182.241 53.9461L182.014 54.6922C181.67 54.5153 181.286 54.4297 180.9 54.4435C180.471 54.569 180.094 54.8308 179.826 55.1895C179.558 55.5483 179.414 55.9846 179.414 56.433C179.414 56.8814 179.558 57.3177 179.826 57.6765C180.094 58.0352 180.471 58.297 180.9 58.4225C181.308 58.4266 181.711 58.3343 182.076 58.1531L182.221 58.8578Z" fill="white"/>
<path d="M184.636 52.4949V53.7591H185.937V54.4844H184.574V57.3444C184.574 58.0076 184.76 58.3599 185.297 58.3599C185.481 58.3877 185.669 58.3877 185.854 58.3599V59.0852C185.58 59.1712 185.295 59.2131 185.008 59.2096C184.818 59.2212 184.627 59.1921 184.449 59.1242C184.272 59.0563 184.11 58.9512 183.976 58.8158C183.691 58.4123 183.559 57.9198 183.604 57.4273V54.4844H182.799V53.7591H183.604V52.7643L184.636 52.4949Z" fill="white"/>
<path d="M187.547 56.5774C187.525 56.8233 187.557 57.071 187.64 57.3033C187.724 57.5356 187.856 57.7468 188.029 57.9224C188.202 58.0979 188.411 58.2335 188.641 58.3198C188.872 58.4061 189.118 58.4409 189.363 58.4219C189.861 58.4433 190.357 58.3438 190.808 58.1317L190.994 58.8156C190.44 59.0533 189.841 59.1665 189.239 59.1472C188.887 59.1694 188.533 59.1149 188.204 58.9876C187.874 58.8602 187.575 58.6628 187.329 58.4091C187.082 58.1553 186.892 57.851 186.773 57.517C186.654 57.1831 186.608 56.8272 186.639 56.4738C186.598 56.1207 186.632 55.763 186.737 55.4237C186.843 55.0844 187.018 54.771 187.251 54.5036C187.484 54.2363 187.771 54.0208 188.092 53.8712C188.413 53.7215 188.762 53.6409 189.116 53.6345C189.425 53.6387 189.73 53.7074 190.012 53.8364C190.293 53.9654 190.545 54.1518 190.75 54.3838C190.956 54.6158 191.112 54.8882 191.207 55.1838C191.302 55.4794 191.335 55.7917 191.303 56.1007C191.318 56.2524 191.318 56.405 191.303 56.5567H187.588L187.547 56.5774ZM190.354 55.9557C190.38 55.7645 190.366 55.5699 190.312 55.3847C190.258 55.1994 190.166 55.0278 190.041 54.881C189.916 54.7342 189.762 54.6155 189.588 54.5329C189.414 54.4502 189.225 54.4054 189.033 54.4013C188.639 54.4274 188.269 54.602 187.997 54.8902C187.725 55.1783 187.572 55.5589 187.567 55.9557H190.354Z" fill="white"/>
<path d="M197 51.2927V57.6758C197 58.1525 197 58.6913 197 59.0437H196.257V58.1318C196.093 58.4588 195.838 58.731 195.523 58.915C195.208 59.099 194.846 59.1869 194.482 59.168C194.153 59.1503 193.831 59.0654 193.537 58.9183C193.242 58.7713 192.98 58.5653 192.767 58.313C192.555 58.0607 192.396 57.7673 192.3 57.4511C192.204 57.1348 192.174 56.8022 192.211 56.4738C192.168 56.1302 192.196 55.7814 192.293 55.449C192.39 55.1166 192.554 54.8077 192.774 54.5415C192.995 54.2753 193.268 54.0574 193.575 53.9014C193.883 53.7454 194.22 53.6546 194.564 53.6346C194.877 53.6123 195.19 53.6757 195.47 53.8181C195.75 53.9604 195.986 54.1763 196.154 54.4428V54.4428V51.2927H197ZM196.071 55.9557C196.08 55.7618 196.049 55.5681 195.981 55.3863C195.914 55.2044 195.811 55.038 195.678 54.8969C195.545 54.7558 195.385 54.6429 195.208 54.5649C195.031 54.487 194.84 54.4454 194.647 54.4428C193.656 54.4428 193.058 55.3133 193.058 56.5153C193.058 57.7173 193.594 58.4841 194.626 58.4841C194.957 58.4813 195.277 58.3645 195.533 58.1533C195.788 57.942 195.964 57.6491 196.03 57.3235C196.052 57.1863 196.052 57.0463 196.03 56.909L196.071 55.9557Z" fill="white"/>
<path d="M9.24726 20.5586L7.8643 24.0403C5.65568 29.6566 4.29335 33.3041 3.90117 34.8999C3.69131 35.6141 3.57338 36.3524 3.55027 37.0967C3.5154 37.2885 3.5154 37.4851 3.55027 37.677C5.30017 40.6844 7.65728 43.291 10.4702 45.3293C13.2831 47.3677 16.4895 48.7927 19.8836 49.5129C23.2776 50.2331 26.7842 50.2325 30.178 49.5111C33.5718 48.7898 36.7778 47.3636 39.59 45.3243H39.2597C36.4407 46.1154 33.5144 46.4512 30.5904 46.3191C28.5242 46.2944 26.4843 45.8502 24.5935 45.0132C22.7028 44.1762 21.0003 42.9638 19.5885 41.4488C15.7864 37.4648 12.9597 32.6472 11.332 27.3769C10.5916 25.1238 10.0257 22.8165 9.63945 20.4757H9.24726V20.5586ZM33.5627 21.7192C30.602 24.0977 28.3345 27.2334 26.9988 30.7965C25.5539 34.5061 25.43 37.3868 26.6685 39.3971C27.907 41.4074 30.3633 42.3814 34.0168 42.3814H35.7507C36.1635 42.3814 36.7827 42.2571 37.2781 42.1535L39.3423 37.3039C39.9635 35.8081 40.4808 34.2708 40.8904 32.7031C41.0153 32.2505 41.0846 31.7841 41.0968 31.3146C41.1379 31.1444 41.1379 30.9667 41.0968 30.7965L40.6427 29.8224H49.3946L48.0735 31.0244C47.369 31.6276 46.7752 32.3501 46.319 33.1591C45.7411 34.2367 44.9361 36.1226 43.8833 38.7754L42.232 43.1068C44.6724 40.7734 46.6151 37.9665 47.9422 34.8564C49.2692 31.7463 49.953 28.3979 49.9519 25.0144C49.9519 24.289 49.9519 23.5637 49.8487 22.8383L49.312 21.7399C48.8147 20.6816 47.9791 19.8208 46.9383 19.2944C45.6478 18.6894 44.2335 18.3983 42.81 18.4447C39.4471 18.4528 36.1866 19.6073 33.5627 21.7192V21.7192ZM0.165094 25.0144C0.165094 25.567 0.165094 26.1266 0.165094 26.693L2.47692 20.9109L3.4677 18.5276C5.53183 13.2843 7.018 9.40888 7.88494 6.92195C5.43973 9.25156 3.49385 12.0578 2.16643 15.1687C0.839015 18.2797 0.158004 21.6299 0.165094 25.0144V25.0144ZM29.9092 7.35717C26.008 10.155 21.3018 13.6988 15.9144 17.8852C16.4943 22.6306 17.5808 27.2998 19.1551 31.812V31.812C19.4028 32.4959 19.6918 33.1383 19.9601 33.7601C20.1925 32.8538 20.475 31.9613 20.8064 31.0866C22.6652 26.2946 25.9802 22.2121 30.2807 19.4188V19.4188C34.7415 16.545 39.9461 15.053 45.2457 15.1288C46.0713 15.1288 46.9589 15.1288 47.8878 15.1288C45.6051 9.81827 41.5656 5.46233 36.4525 2.7978C34.8837 3.81329 32.6545 5.32617 29.8473 7.35717H29.9092ZM19.2789 0.683906L17.9992 1.6994C17.0629 2.58118 16.3058 3.63689 15.7699 4.80806C14.9443 6.40384 13.3755 10.0513 11.1875 15.6262L10.7747 16.6624C11.2215 16.4926 11.656 16.2917 12.0751 16.0614C13.6683 15.0783 15.2051 14.0058 16.6781 12.8491C21.4875 9.20164 24.7902 6.63181 26.5034 5.07748C27.692 4.21648 28.6959 3.12401 29.4551 1.8652L29.5583 1.6165C29.5524 1.51297 29.5524 1.40917 29.5583 1.30564C29.5583 1.30564 29.5583 0.683906 29.5583 0.455937C28.082 0.168659 26.5828 0.0160581 25.0791 0C23.126 0.00412448 21.1799 0.233599 19.2789 0.683906" fill="white"/>
<path d="M9.24726 20.5586L7.8643 24.0403C5.65568 29.6566 4.29335 33.3041 3.90117 34.8999C3.69131 35.6141 3.57338 36.3524 3.55027 37.0967C3.5154 37.2885 3.5154 37.4851 3.55027 37.677C5.30017 40.6844 7.65728 43.291 10.4702 45.3293C13.2831 47.3677 16.4895 48.7927 19.8836 49.5129C23.2776 50.2331 26.7842 50.2325 30.178 49.5111C33.5718 48.7898 36.7778 47.3636 39.59 45.3243H39.2597C36.4407 46.1154 33.5144 46.4512 30.5904 46.3191C28.5242 46.2944 26.4843 45.8502 24.5935 45.0132C22.7028 44.1762 21.0003 42.9638 19.5885 41.4488C15.7864 37.4648 12.9597 32.6472 11.332 27.3769C10.5916 25.1238 10.0257 22.8165 9.63945 20.4757H9.24726V20.5586ZM33.5627 21.7192C30.602 24.0977 28.3345 27.2334 26.9988 30.7965C25.5539 34.5061 25.43 37.3868 26.6685 39.3971C27.907 41.4074 30.3633 42.3814 34.0168 42.3814H35.7507C36.1635 42.3814 36.7827 42.2571 37.2781 42.1535L39.3423 37.3039C39.9635 35.8081 40.4808 34.2708 40.8904 32.7031C41.0153 32.2505 41.0846 31.7841 41.0968 31.3146C41.1379 31.1444 41.1379 30.9667 41.0968 30.7965L40.6427 29.8224H49.3946L48.0735 31.0244C47.369 31.6276 46.7752 32.3501 46.319 33.1591C45.7411 34.2367 44.9361 36.1226 43.8833 38.7754L42.232 43.1068C44.6724 40.7734 46.6151 37.9665 47.9422 34.8564C49.2692 31.7463 49.953 28.3979 49.9519 25.0144C49.9519 24.289 49.9519 23.5637 49.8487 22.8383L49.312 21.7399C48.8147 20.6816 47.9791 19.8208 46.9383 19.2944C45.6478 18.6894 44.2335 18.3983 42.81 18.4447C39.4471 18.4528 36.1866 19.6073 33.5627 21.7192V21.7192ZM0.165094 25.0144C0.165094 25.567 0.165094 26.1266 0.165094 26.693L2.47692 20.9109L3.4677 18.5276C5.53183 13.2843 7.018 9.40888 7.88494 6.92195C5.43973 9.25156 3.49385 12.0578 2.16643 15.1687C0.839015 18.2797 0.158004 21.6299 0.165094 25.0144V25.0144ZM29.9092 7.35717C26.008 10.155 21.3018 13.6988 15.9144 17.8852C16.4943 22.6306 17.5808 27.2998 19.1551 31.812V31.812C19.4028 32.4959 19.6918 33.1383 19.9601 33.7601C20.1925 32.8538 20.475 31.9613 20.8064 31.0866C22.6652 26.2946 25.9802 22.2121 30.2807 19.4188V19.4188C34.7415 16.545 39.9461 15.053 45.2457 15.1288C46.0713 15.1288 46.9589 15.1288 47.8878 15.1288C45.6051 9.81827 41.5656 5.46233 36.4525 2.7978C34.8837 3.81329 32.6545 5.32617 29.8473 7.35717H29.9092ZM19.2789 0.683906L17.9992 1.6994C17.0629 2.58118 16.3058 3.63689 15.7699 4.80806C14.9443 6.40384 13.3755 10.0513 11.1875 15.6262L10.7747 16.6624C11.2215 16.4926 11.656 16.2917 12.0751 16.0614C13.6683 15.0783 15.2051 14.0058 16.6781 12.8491C21.4875 9.20164 24.7902 6.63181 26.5034 5.07748C27.692 4.21648 28.6959 3.12401 29.4551 1.8652L29.5583 1.6165C29.5524 1.51297 29.5524 1.40917 29.5583 1.30564C29.5583 1.30564 29.5583 0.683906 29.5583 0.455937C28.082 0.168659 26.5828 0.0160581 25.0791 0C23.126 0.00412448 21.1799 0.233599 19.2789 0.683906" fill="white"/>
<path d="M92.8238 28.2056V45.4483H86.0948V28.247C86.1023 27.5906 85.9685 26.9402 85.7026 26.3404C85.4491 25.7671 85.1001 25.2415 84.6705 24.7861C84.2349 24.3372 83.716 23.9781 83.1431 23.7291C82.5524 23.4638 81.9118 23.3295 81.2647 23.3354C80.6187 23.3397 79.9801 23.4736 79.3864 23.7291C78.2321 24.2391 77.3162 25.1735 76.8268 26.3404C76.5627 26.9408 76.4291 27.5907 76.4347 28.247V45.4483H69.7056V28.247C69.7131 27.5906 69.5793 26.9402 69.3134 26.3404C69.059 25.7924 68.7095 25.2941 68.2813 24.869C67.838 24.4293 67.3209 24.0715 66.7539 23.812C66.1632 23.5467 65.5226 23.4124 64.8755 23.4183C64.2295 23.4226 63.5909 23.5565 62.9972 23.812C61.8429 24.322 60.9271 25.2564 60.4377 26.4233C60.1736 27.0237 60.0399 27.6736 60.0455 28.3299V45.5312H53.3164V14.5068H55.2773C56.2797 14.4743 57.2687 14.7455 58.1154 15.2852C58.9622 15.8249 59.6275 16.6079 60.0248 17.5325C61.4854 16.838 63.0767 16.4639 64.6926 16.4354C66.3085 16.4068 67.9119 16.7243 69.396 17.3667C70.7745 17.9695 72.0279 18.8272 73.0908 19.8951C74.1438 18.8344 75.3823 17.9774 76.7443 17.3667C78.1508 16.7653 79.6637 16.4553 81.1925 16.4553C82.7212 16.4553 84.2342 16.7653 85.6407 17.3667C86.9828 17.9362 88.2078 18.7514 89.2529 19.7708C90.2972 20.8021 91.1438 22.0174 91.7505 23.3561C92.3855 24.7506 92.7364 26.2585 92.7826 27.7911L92.8238 28.2056Z" fill="white"/>
<path d="M155.491 6.21729V30.5685C155.504 32.5839 155.103 34.5804 154.314 36.4335C153.547 38.2166 152.455 39.8401 151.094 41.2208C149.714 42.5856 148.089 43.6756 146.305 44.4331C144.475 45.2046 142.51 45.5992 140.526 45.5937C138.516 45.6101 136.525 45.2005 134.684 44.3917C132.909 43.6288 131.292 42.5393 129.916 41.1794C128.557 39.7969 127.466 38.1737 126.696 36.392C125.9 34.5402 125.493 32.5438 125.499 30.527C125.484 28.5027 125.892 26.4978 126.696 24.6413C127.445 22.8422 128.539 21.2086 129.916 19.8332C131.263 18.4658 132.852 17.3624 134.602 16.5795C136.476 15.7907 138.493 15.4025 140.526 15.4396C141.923 15.4474 143.312 15.6496 144.654 16.0407C145.991 16.4324 147.264 17.0189 148.431 17.7815V6.21729H155.491ZM140.526 38.5888C141.596 38.599 142.657 38.3874 143.642 37.9671C145.552 37.1355 147.078 35.6107 147.915 33.6979C148.734 31.707 148.734 29.4714 147.915 27.4805C147.496 26.4932 146.878 25.604 146.099 24.8693C145.364 24.1396 144.504 23.5498 143.56 23.1284C141.577 22.3063 139.35 22.3063 137.367 23.1284C136.413 23.5319 135.55 24.1239 134.829 24.8693C134.115 25.6129 133.535 26.4754 133.115 27.4184C132.297 29.4093 132.297 31.6448 133.115 33.6357C133.517 34.5884 134.099 35.454 134.829 36.1848C135.561 36.9121 136.422 37.4955 137.367 37.9049C138.365 38.3395 139.438 38.5719 140.526 38.5888V38.5888Z" fill="white"/>
<path d="M157.947 45.5933V17.6775H164.965V45.5933H157.947Z" fill="white"/>
<path d="M196.856 30.5687V45.5939H195.329C194.299 45.6047 193.278 45.4023 192.33 44.9994C191.382 44.5965 190.527 44.0017 189.817 43.2521C188.636 44.0021 187.358 44.5877 186.019 44.9929C182.686 45.9658 179.121 45.7535 175.926 44.3919C172.298 42.8824 169.407 40.0019 167.876 36.3716C166.712 33.5978 166.399 30.5387 166.976 27.5853C167.553 24.6319 168.995 21.9184 171.116 19.792C172.506 18.4289 174.137 17.3394 175.926 16.5797C177.783 15.8 179.775 15.3984 181.788 15.3984C183.801 15.3984 185.793 15.8 187.65 16.5797C189.44 17.3447 191.066 18.4495 192.439 19.8335C193.798 21.231 194.89 22.8679 195.659 24.6623C196.446 26.5234 196.846 28.5262 196.836 30.548V30.548L196.856 30.5687ZM181.809 38.5891C182.872 38.5953 183.926 38.3837 184.905 37.9673C185.86 37.5642 186.729 36.9802 187.464 36.2472C188.191 35.5097 188.779 34.6461 189.198 33.6981C189.615 32.7083 189.826 31.6433 189.817 30.5687C189.824 29.4809 189.613 28.4029 189.198 27.3979C188.787 26.4514 188.198 25.593 187.464 24.8695C186.73 24.1399 185.87 23.5501 184.926 23.1287C183.945 22.687 182.884 22.4541 181.809 22.4448C180.736 22.4311 179.673 22.6502 178.692 23.0872C177.738 23.4907 176.874 24.0827 176.153 24.8281C175.421 25.5693 174.833 26.4407 174.419 27.3979C174.001 28.4017 173.79 29.4805 173.8 30.5687C173.796 31.6248 174.002 32.671 174.406 33.6461C174.81 34.6212 175.404 35.5055 176.153 36.2472C176.893 36.9952 177.775 37.5876 178.746 37.9897C179.717 38.3918 180.758 38.5955 181.809 38.5891Z" fill="white"/>
<path d="M124.013 27.6671V27.3976C123.68 25.6879 123.044 24.0522 122.134 22.5689C121.262 21.0853 120.145 19.7609 118.832 18.6519C116.126 16.4084 112.722 15.1908 109.213 15.2117C107.201 15.2199 105.213 15.6431 103.371 16.4552C101.581 17.2201 99.9552 18.3249 98.5825 19.7089C97.2107 21.0927 96.1113 22.7239 95.3418 24.517C94.5487 26.3834 94.1482 28.3943 94.1653 30.4234V30.527C94.1482 32.5562 94.5487 34.567 95.3418 36.4335C96.116 38.2239 97.2149 39.8543 98.5825 41.2416C99.9607 42.6189 101.585 43.7227 103.371 44.4953C105.227 45.3051 107.231 45.7146 109.254 45.6973C111.035 45.703 112.802 45.3943 114.476 44.7854C116.074 44.1997 117.561 43.3446 118.873 42.257C120.181 41.1667 121.297 39.8637 122.175 38.4023C122.686 37.5191 123.128 36.5976 123.497 35.646C120.194 35.646 118.274 35.646 115.529 35.646C115 36.285 114.381 36.8435 113.692 37.3039C112.369 38.2553 110.778 38.7565 109.151 38.7339C108.067 38.7439 106.993 38.5324 105.993 38.1122C105.032 37.7091 104.162 37.1172 103.433 36.3713V36.3713C102.765 35.6674 102.22 34.8545 101.823 33.9673C101.702 33.7192 101.599 33.463 101.514 33.2005H124.013C124.326 31.3694 124.326 29.4981 124.013 27.6671V27.6671ZM101.885 27.149C102.361 26.2903 102.906 25.4724 103.516 24.7035V24.7035C104.254 23.9688 105.122 23.3785 106.075 22.9626C107.075 22.5424 108.15 22.3309 109.233 22.3409C110.86 22.3183 112.452 22.8194 113.774 23.7709C114.996 24.6225 115.966 25.7896 116.582 27.149H101.885Z" fill="white"/>
<path d="M165.523 10.3621C165.523 9.6038 165.299 8.86253 164.879 8.23203C164.459 7.60153 163.863 7.11011 163.165 6.81993C162.468 6.52974 161.7 6.45381 160.959 6.60175C160.218 6.74968 159.538 7.11484 159.004 7.65104C158.47 8.18723 158.106 8.87039 157.959 9.61411C157.811 10.3578 157.887 11.1287 158.176 11.8293C158.465 12.5299 158.955 13.1287 159.582 13.55C160.21 13.9712 160.949 14.1961 161.704 14.1961C162.717 14.1961 163.688 13.7922 164.404 13.0732C165.12 12.3541 165.523 11.3789 165.523 10.3621V10.3621Z" fill="white"/>
</svg>
