<svg width="218" height="51" viewBox="0 0 218 51" fill="none" xmlns="http://www.w3.org/2000/svg">
<path fill-rule="evenodd" clip-rule="evenodd" d="M46.309 0.0297852C46.4847 0.117658 46.7483 0.117659 46.9241 0.205531C46.309 7.58684 41.7396 11.2775 33.3917 10.7503C33.3917 21.7344 33.3917 32.6306 33.3917 43.6147C39.4549 42.2087 43.2334 38.3423 46.0453 33.5972C46.309 33.6851 46.4847 33.7729 46.7483 33.8608C44.903 41.5057 40.773 47.3932 33.6553 49.7658C30.0525 50.9081 24.9559 51.1717 20.738 50.293C16.7837 49.5022 13.5324 47.8326 10.8962 45.6358C6.94195 42.3845 4.04215 37.903 3.60278 31.1367C3.33917 28.9399 3.51491 26.6552 3.95427 24.6342C4.833 20.7678 6.67833 17.6043 8.78728 14.9682C10.9841 12.2441 13.5324 10.0473 16.3443 8.02621C12.9173 7.32322 9.0509 7.58684 6.41471 8.90493C4.21789 10.0473 2.54831 11.8047 1.23022 13.8258C1.05447 14.0894 0.790855 14.6167 0.615109 14.6167C0.439364 14.7045 0.175746 14.6167 0 14.6167C0.702982 9.69579 2.72406 6.09301 6.06322 3.72044C9.31451 1.34788 13.9718 0.117658 19.6835 0.469149C26.1861 0.908513 31.5463 2.84171 37.6095 3.72044C38.9276 3.89619 40.2457 4.07193 41.4759 3.80831C43.9364 3.45682 45.1666 1.87511 46.309 0.0297852C46.2211 0.0297852 46.2211 0.0297852 46.309 0.0297852ZM10.9841 23.1403C10.369 30.6974 13.0052 35.794 16.8716 39.1332C17.5746 38.4302 18.1897 37.7272 18.629 36.7606C19.0684 35.794 19.1563 34.5638 19.1563 33.1578C19.1563 24.8978 19.1563 16.462 19.1563 8.28983C18.8048 8.28983 18.5412 8.20195 18.2775 8.20195C14.6748 11.8926 11.5113 16.462 10.9841 23.1403ZM26.8012 9.69579C26.8012 12.8592 26.8012 16.1984 26.8012 19.3618C26.8012 22.6131 26.9769 25.9523 26.4497 28.7642C25.4831 34.3002 21.9682 37.2 18.5412 40.2755C21.441 42.8238 25.9225 44.2298 31.5463 43.7904C31.5463 32.7185 31.5463 21.5586 31.5463 10.4866C29.9646 10.3109 28.3829 9.95941 26.8012 9.69579C26.8012 9.69579 26.8012 9.60792 26.8012 9.69579Z" fill="white"/>
<path fill-rule="evenodd" clip-rule="evenodd" d="M53.6024 2.22656C55.0084 2.22656 55.8871 2.84167 56.3265 3.98402C57.1173 6.18084 56.5901 9.60787 54.8326 10.3987C53.5145 10.926 51.8449 10.3987 51.2298 9.43213C50.7026 8.72915 50.5269 7.67467 50.5269 6.6202C50.5269 4.15976 51.142 2.22656 53.6024 2.22656Z" fill="white"/>
<path fill-rule="evenodd" clip-rule="evenodd" d="M65.1137 15.0558C65.7289 14.0892 66.1682 12.9469 67.2227 12.3318C68.1893 11.8045 69.5074 12.0681 70.2104 12.5954C70.9133 13.1226 71.4406 14.0013 71.7921 14.7922C73.2859 18.1314 73.6374 23.931 72.5829 28.2367C72.1436 30.2578 71.0891 32.191 69.6831 32.894C68.5408 33.5091 67.0469 33.1576 66.344 32.4546C65.5531 31.6638 65.2016 30.6093 64.938 29.3791C64.8501 30.6093 64.938 31.9274 64.938 33.1576C62.8291 32.894 60.808 32.5425 58.5233 32.5425C58.5233 32.191 58.5233 31.9274 58.5233 31.5759C58.9626 31.5759 59.3141 31.5759 59.7535 31.5759C59.8414 22.525 59.7535 13.2984 59.7535 4.15959C59.3141 4.15959 58.9626 4.15959 58.5233 4.15959C58.5233 3.8081 58.5233 3.54448 58.5233 3.19299C60.808 3.10511 63.0927 2.8415 65.0259 2.57788C65.2895 2.57788 65.2016 2.57788 65.2016 2.8415C65.2895 4.7747 65.2016 6.79577 65.2016 8.72897C65.1137 11.0137 65.1137 13.0347 65.1137 15.0558ZM65.1137 18.2192C65.0259 19.5373 65.1137 21.119 65.1137 22.7886C65.1137 24.2825 65.1137 25.8642 65.1137 27.358C65.1137 27.9731 65.2016 28.764 65.3774 29.4669C65.5531 30.0821 65.8167 30.785 66.4318 30.785C66.9591 30.6972 67.0469 29.9063 67.1348 29.2912C67.3984 27.2701 67.3106 24.8097 67.3106 22.7007C67.3106 21.2948 67.3106 19.8888 67.3106 18.2192C67.3106 17.4284 67.3106 16.8133 67.2227 16.1103C67.1348 15.3194 66.9591 14.6165 66.344 14.7043C65.2016 14.8801 65.2016 17.0769 65.1137 18.2192Z" fill="white"/>
<path fill-rule="evenodd" clip-rule="evenodd" d="M42.0032 12.0684C42.0032 13.4743 42.0032 14.8803 42.0032 16.2863C42.794 14.4409 43.497 11.8926 46.2211 12.2441C46.6604 12.332 47.0998 12.5077 47.3634 12.7713C49.1209 14.4409 49.2966 19.5375 47.5392 21.295C47.1877 21.6465 46.6605 21.9101 46.0453 21.9101C45.3424 21.8222 44.7273 21.3829 44.3758 20.9435C43.6728 20.0648 43.4092 18.5709 43.4092 17.2529C43.4092 16.9014 43.497 16.462 43.5849 16.0226C43.5849 15.6711 43.7607 15.1439 43.4092 14.9682C42.9698 15.2318 42.794 15.9348 42.7062 16.462C42.2668 18.2195 42.3547 20.5041 42.3547 22.7888C42.3547 25.7765 42.3547 28.8521 42.3547 31.7519C42.8819 31.8397 43.497 31.7519 44.0243 31.7519C44.0243 32.1033 44.0243 32.367 44.0243 32.7185C41.2123 32.7185 38.3125 32.7185 35.5006 32.7185C35.5006 32.367 35.5006 32.1033 35.5006 31.7519C35.8521 31.7519 36.2915 31.7519 36.643 31.7519C36.7308 25.7765 36.643 19.7133 36.643 13.7379C36.2915 13.7379 35.8521 13.7379 35.5006 13.7379C35.5006 13.3864 35.5006 13.035 35.5006 12.6835C37.6096 12.4199 39.8064 12.2441 42.0032 12.0684Z" fill="white"/>
<path fill-rule="evenodd" clip-rule="evenodd" d="M56.4143 12.0684C56.5022 18.4831 56.4143 25.0735 56.5022 31.5761C56.8537 31.664 57.3809 31.5761 57.8203 31.5761C57.8203 31.9276 57.8203 32.1912 57.8203 32.5427C55.0962 32.5427 52.3722 32.5427 49.6481 32.5427C49.6481 32.1912 49.6481 31.9276 49.6481 31.5761C49.9996 31.5761 50.439 31.5761 50.7905 31.5761C50.8784 25.6008 50.7905 19.5375 50.7905 13.5622C50.439 13.5622 49.9996 13.5622 49.6481 13.5622C49.6481 13.2107 49.6481 12.8592 49.6481 12.5077C52.0207 12.5956 54.2175 12.2441 56.4143 12.0684Z" fill="white"/>
<path fill-rule="evenodd" clip-rule="evenodd" d="M83.0397 13.6501C82.6004 13.6501 82.161 13.6501 81.8095 13.6501C81.8095 13.2986 81.8095 12.9471 81.8095 12.5956C84.1821 12.5956 86.2032 12.1562 88.5757 12.1562C88.5757 18.6588 88.5757 25.1614 88.5757 31.664C89.0151 31.664 89.4545 31.664 89.8938 31.664C89.8938 32.0155 89.8938 32.2791 89.8938 32.6306C87.5213 32.6306 85.4123 32.9821 83.3034 33.2457C83.2155 32.0155 83.3034 30.6095 83.3034 29.2914C82.4246 31.0489 81.6338 32.9821 79.3491 33.2457C76.7129 33.5093 76.0099 31.4004 75.5706 29.2036C75.1312 26.9189 75.2191 24.2827 75.2191 21.5586C75.2191 18.8346 75.2191 16.1984 75.2191 13.6501C74.8676 13.6501 74.4282 13.6501 74.0767 13.6501C74.0767 13.2986 74.0767 12.9471 74.0767 12.5956C76.1857 12.5077 78.6461 12.4199 80.5793 12.1562C80.755 12.1562 80.8429 11.9805 80.8429 12.332C80.9308 13.6501 80.8429 15.4075 80.8429 16.7256C80.8429 20.7678 80.8429 24.3706 80.8429 28.5006C80.8429 29.4672 80.8429 30.6974 81.8974 30.4338C82.7761 30.258 83.0397 28.1491 83.0397 27.0946C83.1276 25.5129 83.0397 23.9312 83.0397 22.6131C83.0397 19.5376 83.0397 16.7256 83.0397 13.6501Z" fill="white"/>
<path fill-rule="evenodd" clip-rule="evenodd" d="M105.359 31.6638C105.799 31.6638 106.238 31.6638 106.59 31.6638C106.59 32.0153 106.59 32.2789 106.59 32.6304C104.041 32.6304 101.493 32.6304 99.0326 32.6304C99.0326 32.2789 99.0326 32.0153 99.0326 31.6638C99.2962 31.6638 99.5598 31.6638 99.8235 31.6638C99.9113 27.5338 99.8235 23.0522 99.8235 18.7465C99.8235 18.1314 99.8235 17.3405 99.7356 16.6375C99.6477 15.9345 99.5598 15.1437 99.0326 15.0558C98.4175 14.9679 98.066 15.7588 97.9781 16.1982C97.4509 17.9556 97.6266 20.4161 97.6266 22.6129C97.6266 25.6884 97.6266 28.5882 97.6266 31.6638C97.8903 31.6638 98.1539 31.6638 98.5054 31.6638C98.5054 32.0153 98.5054 32.2789 98.5054 32.6304C95.9571 32.6304 93.4088 32.6304 90.8604 32.6304C90.8604 32.2789 90.8604 32.0153 90.8604 31.6638C91.2119 31.6638 91.6513 31.6638 92.0028 31.6638C92.0028 25.6884 92.0028 19.6252 92.0028 13.6499C91.6513 13.6499 91.2119 13.6499 90.8604 13.6499C90.8604 13.2984 90.8604 12.9469 90.8604 12.5954C93.233 12.5954 95.2541 12.156 97.6266 12.156C97.6266 13.4741 97.6266 14.7043 97.6266 16.0224C98.3296 14.265 99.1205 12.4196 101.142 12.0681C102.02 11.8924 102.899 12.156 103.426 12.5075C104.393 13.1226 104.92 14.6165 105.096 16.1103C105.359 17.692 105.359 19.4495 105.359 21.119C105.359 24.8097 105.359 28.4125 105.359 31.6638Z" fill="white"/>
<path d="M120.649 32.5426L111.423 9.08061V27.8854C111.423 30.1701 111.95 31.4003 112.916 31.576L113.532 31.4882V32.5426H108.786V31.4003L109.226 31.4882C110.192 31.4003 110.632 29.9943 110.632 27.446V6.62017C110.544 6.35655 110.368 5.91719 110.105 5.38995C109.841 4.68697 109.402 4.42335 108.962 4.42335H108.786V3.36888H117.486L123.637 19.0102V6.44442C123.637 5.5657 123.549 5.03846 123.285 4.77484C123.022 4.51123 122.67 4.42335 122.143 4.42335H121.704V3.28101H126.361V4.42335H125.922C125.219 4.42335 124.691 4.86272 124.604 5.74144C124.516 6.00506 124.516 6.70804 124.516 7.85039V32.4548H120.649V32.5426Z" fill="white"/>
<path d="M132.512 23.8433C132.512 25.8644 132.512 27.1825 132.6 27.7976C132.776 29.6429 133.215 30.8731 133.918 31.4004L134.973 31.7518C136.642 31.7518 138.048 30.258 139.19 27.2703L139.63 27.7976C138.663 29.8186 137.872 31.2246 137.257 31.7518C136.291 32.7184 135.148 33.1578 133.742 33.1578C131.458 33.1578 129.7 32.1912 128.47 30.258C127.24 28.3248 126.713 25.8644 126.713 22.7888C126.713 20.2405 127.152 17.9558 127.943 16.0226C129.085 13.2986 130.843 11.9805 133.215 11.9805C135.148 11.9805 136.73 13.0349 137.96 15.2318C139.19 17.4286 139.806 20.2405 139.806 23.8433H132.512V23.8433ZM132.512 16.3741V22.8767H134.533V16.2862C134.533 15.056 134.533 14.353 134.445 14.0015C134.27 13.2986 134.006 12.9471 133.479 12.9471C132.864 13.0349 132.512 14.0894 132.512 16.3741Z" fill="white"/>
<path d="M140.509 13.5622V12.5078C143.233 12.5078 145.342 10.0473 147.011 5.03857H147.451V12.5078H150.087V13.5622H147.451V28.4127C147.451 29.8187 147.626 30.6096 148.066 30.6096H148.153C149.296 30.3459 149.823 28.6763 149.823 25.5129H150.35C150.35 27.7976 149.999 29.5551 149.384 30.7853C148.681 32.0155 147.802 32.8064 146.484 32.9821C146.22 33.07 145.957 33.07 145.781 33.07H145.166C144.023 33.07 143.233 32.7185 142.793 32.1034C142.442 31.664 142.178 30.961 142.002 29.9066C141.827 28.7642 141.739 27.6219 141.739 26.5674V13.5622H140.509Z" fill="white"/>
<path d="M158.522 13.6499H157.732L160.631 27.0066L161.686 21.9978L159.928 13.6499H158.962V12.5954H166.783V13.6499H165.464L168.188 26.5672L170.21 17.1648C170.385 16.4618 170.473 15.671 170.473 14.8801C170.473 14.0014 170.21 13.562 169.77 13.562H169.507V12.5076H173.021V13.562C172.318 13.562 171.791 14.1772 171.352 15.4074C171.264 15.671 171.088 16.374 170.913 17.4284L167.749 32.5426H163.971L162.037 23.7553L160.104 32.5426H156.15L152.02 13.6499H150.878V12.5954H158.435V13.6499H158.522Z" fill="white"/>
<path d="M181.281 12.0684C183.654 12.0684 185.412 13.2107 186.642 15.4954C187.608 17.3407 188.136 19.7133 188.136 22.5252C188.136 25.0735 187.696 27.3582 186.817 29.2914C185.587 31.9276 183.742 33.2457 181.281 33.2457C178.557 33.2457 176.624 32.0155 175.394 29.555C174.515 27.7976 174.076 25.425 174.076 22.6131C174.076 19.9769 174.603 17.6922 175.57 15.759C176.8 13.2986 178.645 12.0684 180.93 12.0684H181.281V12.0684ZM182.16 16.2863C182.16 15.1439 182.16 14.5288 182.072 14.2652C181.984 13.3865 181.633 12.9471 181.018 12.9471C180.227 12.9471 179.876 14.0894 179.876 16.2863V29.3793C179.876 31.1368 180.227 32.0155 181.018 32.0155C181.545 32.0155 181.897 31.664 182.072 31.0489C182.072 30.8731 182.16 30.3459 182.16 29.4672V16.2863Z" fill="white"/>
<path d="M190.332 13.5622H189.19V12.5077L195.781 11.9805V16.1984C196.659 13.4743 197.889 12.0683 199.383 12.0683H199.647C200.701 12.0683 201.492 12.7713 201.932 14.0894C202.283 15.056 202.459 16.1105 202.459 17.2528C202.459 18.2194 202.283 19.0982 201.932 19.9769C201.404 21.0314 200.701 21.6465 199.823 21.6465C198.065 21.295 197.186 19.7133 197.186 16.9013L197.362 15.056C197.274 14.9681 197.274 14.8803 197.186 14.8803L197.099 14.7924C196.747 14.7924 196.483 15.6711 196.132 17.3407C196.044 18.0437 195.956 19.186 195.956 20.8556V31.4004H197.626V32.5427H189.19V31.5761H190.332V13.5622V13.5622Z" fill="white"/>
<path d="M209.225 22.701L211.07 19.6255C211.334 19.274 211.685 18.6589 212.125 17.868C212.564 16.9014 212.828 16.1105 212.828 15.4076C212.828 14.2652 212.301 13.6501 211.158 13.6501H210.895V12.6835H217.221V13.6501C217.134 13.6501 217.046 13.6501 216.87 13.6501C216.167 13.6501 215.288 14.3531 214.234 15.6712C213.97 16.0227 213.531 16.6378 213.091 17.3408L217.485 31.5762H217.749V32.5428H210.719V31.5762H211.598L209.313 23.5797L208.961 24.0191V31.5762H209.84V32.5428H202.635V31.5762H203.689V4.3356H202.635V3.369C204.041 3.369 206.149 3.10538 208.961 2.66602V22.701H209.225Z" fill="white"/>
</svg>
